<?xml version="1.0" encoding="UTF-8"?>
<svg width="14px" height="15px" viewBox="0 0 14 15" version="1.1" xmlns="http://www.w3.org/2000/svg" xmlns:xlink="http://www.w3.org/1999/xlink">
    <!-- Generator: sketchtool 51.2 (57519) - http://www.bohemiancoding.com/sketch -->
    <title>0980EB97-ECDD-4104-ADCF-7601B13E4E82</title>
    <desc>Created with sketchtool.</desc>
    <defs></defs>
    <g id="Page-1" stroke="none" stroke-width="1" fill="none" fill-rule="evenodd">
        <g id="aki_2-copy" transform="translate(-807.000000, -826.000000)" fill="#060101">
            <g id="Group-5" transform="translate(807.000000, 826.000000)">
                <g id="Group-2">
                    <path d="M7.76785714,2.8128 C8.04557143,1.95137143 7.77814286,0.398228571 6.91414286,0.117942857 C6.05271429,-0.162342857 4.92385714,0.935657143 4.641,1.79708571 C4.36071429,2.66108571 4.83385714,3.58937143 5.69528571,3.86965714 C6.55928571,4.14994286 7.48757143,3.6768 7.76785714,2.8128" id="Fill-40"></path>
                    <path d="M9.76174286,5.18828571 C10.6231714,5.46857143 11.5514571,4.99542857 11.8317429,4.13142857 C12.1120286,3.27 11.8420286,1.71685714 10.9806,1.43657143 C10.1166,1.15628571 8.98517143,2.25428571 8.70488571,3.11828571 C8.4246,3.97971429 8.89774286,4.908 9.76174286,5.18828571" id="Fill-42"></path>
                    <path d="M1.81397143,5.71825714 C2.67797143,5.99854286 3.60368571,5.5254 3.88397143,4.6614 C4.16425714,3.79997143 3.89682857,2.24682857 3.03282857,1.96654286 C2.16882857,1.68625714 1.0374,2.78425714 0.759685714,3.64568571 C0.476828571,4.50968571 0.949971429,5.43797143 1.81397143,5.71825714" id="Fill-44"></path>
                    <path d="M13.0362,5.21477143 C12.1722,4.93448571 11.0433429,6.03248571 10.7604857,6.89648571 C10.4802,7.75791429 10.9533429,8.6862 11.8147714,8.96648571 C12.6787714,9.24677143 13.6070571,8.77362857 13.8873429,7.90962857 C14.1676286,7.04562857 13.8976286,5.49505714 13.0362,5.21477143" id="Fill-46"></path>
                    <path d="M7.33842857,5.99442857 C5.09614286,5.26414286 1.86642857,6.88671429 0.897,9.867 C-0.0698571429,12.8472857 2.90271429,12.009 5.14757143,12.7392857 C7.39242857,13.467 9.31071429,15.8918571 10.2775714,12.9115714 C11.2444286,9.93128571 9.58328571,6.72214286 7.33842857,5.99442857" id="Fill-48"></path>
                </g>
            </g>
        </g>
    </g>
</svg>