<?xml version="1.0" encoding="UTF-8"?>
<svg width="140px" height="56px" viewBox="0 0 140 56" version="1.1" xmlns="http://www.w3.org/2000/svg" xmlns:xlink="http://www.w3.org/1999/xlink">
    <!-- Generator: sketchtool 51.2 (57519) - http://www.bohemiancoding.com/sketch -->
    <title>6C07AE1D-BE56-4326-91CB-9D502BA9A78D</title>
    <desc>Created with sketchtool.</desc>
    <defs></defs>
    <g id="Page-1" stroke="none" stroke-width="1" fill="none" fill-rule="evenodd">
        <g id="aki_2-copy" transform="translate(-650.000000, -42.000000)">
            <rect id="Rectangle-3" x="0" y="0" width="1440" height="140"></rect>
            <g id="Group-6" transform="translate(650.000000, 42.000000)">
                <g id="Group">
                    <g id="Group-Copy" transform="translate(14.000000, 5.600000)" fill="#060101">
                        <g id="Group-50">
                            <path d="M51.5119461,22.7775281 L51.5119461,2.11717753 C51.5119461,1.58964494 51.3045573,1.17285393 50.8917933,0.864791011 C50.4790292,0.55672809 50.0018337,0.403703371 49.4561798,0.403703371 C48.9286472,0.403703371 48.4816539,0.552701124 48.1131865,0.850696629 C47.7427056,1.15070562 47.5594787,1.5715236 47.5594787,2.11717753 L47.5594787,22.9365933 C47.5594787,23.323182 47.7789483,23.6372854 48.2178876,23.8849438 C48.6044764,24.1124674 49.069591,24.227236 49.6152449,24.227236 C50.8797124,24.227236 51.5119461,23.7419865 51.5119461,22.7775281" id="Fill-4"></path>
                            <path d="M77.7826661,22.6192683 C77.7826661,23.3219739 78.3786571,23.67232 79.5746661,23.67232 C80.1001852,23.67232 80.5673133,23.5716458 80.9700099,23.3702975 C81.37472,23.1689492 81.5780818,22.8830346 81.5780818,22.5145672 L81.5780818,16.7700998 C81.5780818,16.329147 81.4149897,15.9606796 81.0908189,15.662684 C80.7626211,15.3626751 80.3820728,15.2136773 79.9431335,15.2136773 L61.9446076,15.2136773 C61.2761312,15.2136773 60.941893,15.7774526 60.941893,16.9009762 C60.941893,17.4103874 61.0385402,17.8412728 61.2318346,18.1916189 C61.4432503,18.596329 61.717084,18.7996908 62.0493088,18.7996908 L77.7826661,18.7996908 L77.7826661,22.6192683 Z" id="Fill-6"></path>
                            <path d="M62.1809906,14.080489 C62.7266445,14.080489 63.1736378,13.8610193 63.5239838,13.42208 C64.2448108,12.52608 64.9736917,11.1730193 65.71264,9.36289798 C67.9778085,11.8233744 69.709404,13.3878508 70.905413,14.0543137 C71.2195164,14.2294867 71.5275793,14.3100261 71.8255748,14.2919047 C72.3188782,14.255662 72.8584917,13.9898822 73.4464288,13.4885249 C74.0343658,12.9871676 74.2941052,12.4999047 74.2236333,12.0247227 C74.1732962,11.7267272 73.5752917,11.1025474 72.4336467,10.1541969 C71.6946984,9.59243506 70.9658175,9.03067326 70.2449906,8.46689798 C68.9442804,7.41384629 67.8549861,6.18360809 66.9771074,4.77819685 C66.9952288,3.75937438 66.9952288,3.07479011 66.9771074,2.72243056 C66.9428782,2.0016036 66.8099883,1.49621933 66.5824647,1.20627775 C66.3529276,0.91633618 65.895867,0.773378876 65.2112827,0.773378876 C64.3857546,0.773378876 63.8421142,1.05325303 63.5783479,1.61702831 C63.507876,1.79018787 63.3850535,2.4425564 63.207867,3.56608 C62.9441007,5.28760809 62.2675703,7.35142831 61.178276,9.75955416 C60.5299344,11.1991946 60.1775748,12.0347901 60.1252243,12.2623137 C60.0386445,12.6851452 60.2178445,13.0918688 60.6668512,13.4885249 C61.1138445,13.8831676 61.6192288,14.080489 62.1809906,14.080489" id="Fill-8"></path>
                            <path d="M42.4728162,10.3122553 C42.6479892,9.66190022 42.8775263,8.65314517 43.1574004,7.28196315 C43.5621106,5.33089798 43.8077555,4.02213393 43.8963488,3.35567101 L43.9748746,2.72142382 C43.9567533,1.75696539 43.1231712,1.27372944 41.4701016,1.27372944 L32.0631083,1.27372944 C31.6060476,1.27372944 31.2416072,1.46702382 30.969787,1.85361258 C30.6959533,2.24020135 30.5590364,2.67914067 30.5590364,3.17043056 C30.5590364,3.64561258 30.6959533,4.0503227 30.969787,4.38254742 C31.2416072,4.71678562 31.6322229,4.88390472 32.1416342,4.88390472 L39.6539398,4.88390472 C39.5109825,6.60543281 39.3277555,7.80949573 39.1002319,8.49408 C36.6739847,8.88066876 34.8376881,9.13638112 33.591342,9.2592036 C32.8000431,9.34779685 32.1778769,9.41625528 31.7208162,9.47061933 C31.2295263,9.57532045 30.8852207,9.70619685 30.6919263,9.86324854 C30.252987,10.1974867 30.0335173,10.6726688 30.0335173,11.2867811 C30.0335173,11.7800845 30.1664072,12.2149969 30.4301735,12.5915182 C30.6919263,12.970053 31.0100566,13.149253 31.378524,13.1311317 L37.6485106,12.8955542 C36.3679353,15.6359047 34.4168701,18.1044351 31.799342,20.2991317 C31.4127533,20.617262 31.1530139,20.8890822 31.0221375,21.1166058 C30.8912611,21.3461429 30.8248162,21.5837339 30.8248162,21.8293789 C30.8248162,22.2683182 31.0382454,22.6448396 31.4711443,22.9629699 C31.9000162,23.2770733 32.3973465,23.4361384 32.9591083,23.4361384 C33.5027488,23.4361384 33.9960521,23.2871407 34.4349915,22.9871317 C35.032996,22.4958418 35.4699218,22.1193204 35.7538229,21.8555542 C38.1780566,19.5883721 40.100933,16.7251991 41.5244656,13.2640216 C41.8748117,12.4203721 42.1909285,11.4377924 42.4728162,10.3122553" id="Fill-10"></path>
                            <path d="M91.7983209,13.1848917 C91.9573861,13.2211344 92.2292063,13.2372422 92.6157951,13.2372422 C99.0287389,13.203013 102.560388,12.8868962 103.210743,12.2888917 C103.490618,12.0251254 103.631561,11.6304827 103.631561,11.1029501 C103.631561,10.5593097 103.478537,10.0720467 103.16846,9.64116135 C102.862411,9.21027596 102.44562,9.00288719 101.918087,9.02100854 C101.620092,9.0733591 101.392568,9.11765573 101.233503,9.15389843 C100.548919,9.2767209 99.7475524,9.34719281 98.8354445,9.36330067 C98.2032108,9.39954337 97.3776827,9.39954337 96.3588602,9.36330067 C95.0057996,9.34719281 94.1963793,9.33712539 93.9346265,9.33712539 L93.9346265,4.61953438 L101.656334,4.61953438 C102.00668,4.61953438 102.286555,4.41818607 102.49797,4.01347596 C102.691265,3.66312989 102.787912,3.22419056 102.787912,2.69665798 C102.787912,2.16912539 102.683211,1.70401079 102.471795,1.29930067 C102.260379,0.894590562 101.972451,0.693242247 101.60197,0.693242247 L92.5110939,0.693242247 C91.8607389,0.693242247 91.2989771,0.926806292 90.8258085,1.3919209 C90.348613,1.85904899 90.1130355,2.41477034 90.1130355,3.06512539 L90.1130355,11.3143658 C90.1130355,11.7714265 90.2741142,12.1700962 90.5982849,12.5123883 C90.9244692,12.8546804 91.3251524,13.0801906 91.7983209,13.1848917" id="Fill-12"></path>
                            <path d="M8.98094022,18.2451775 C8.98094022,18.8592899 8.76147056,19.3425258 8.32253124,19.6948854 C7.88359191,20.0452315 7.35605933,20.2204045 6.73993348,20.2204045 C6.08957843,20.2204045 5.54593798,20.0190562 5.10699865,19.6143461 C4.59758742,19.1592989 4.34187506,18.5351191 4.34187506,17.7438202 L4.34187506,6.93946966 C4.34187506,6.18441348 4.59758742,5.57634157 5.10699865,5.12129438 C5.54593798,4.71658427 6.08957843,4.51523596 6.73993348,4.51523596 C7.35605933,4.51523596 7.88359191,4.71658427 8.32253124,5.12129438 C8.76147056,5.52600449 8.98094022,6.10588764 8.98094022,6.86094382 L8.98094022,18.2451775 Z M12.7501807,17.8746966 L12.7501807,6.30723596 C12.7501807,4.54946517 12.234729,3.16217528 11.2078526,2.14335281 C10.1789627,1.12453034 8.78764584,0.615119101 7.02987506,0.615119101 C2.72706157,0.615119101 0.57464809,2.66081798 0.57464809,6.75422921 L0.57464809,17.7699955 C0.57464809,20.6694112 1.65387506,22.6365843 3.81635596,23.6735281 C4.58752,24.0419955 5.37076494,24.227236 6.16005034,24.227236 C8.23393798,24.227236 9.85076494,23.6876225 11.0105312,22.606382 C12.168284,21.5251416 12.7501807,19.9485843 12.7501807,17.8746966 Z" id="Fill-14"></path>
                            <path d="M22.2367065,9.96996315 C22.1299919,9.93372045 21.6568234,9.91761258 20.8131739,9.91761258 L20.8131739,2.45967101 C20.8131739,1.80931596 20.5977312,1.2898373 20.1668458,0.905262022 C19.7359604,0.518673258 19.2406436,0.323365393 18.6788818,0.323365393 C18.1674571,0.323365393 17.7486526,0.482430562 17.4124009,0.798547416 C17.0278256,1.13278562 16.8345312,1.59790022 16.8345312,2.19590472 L16.8345312,22.8039047 C16.8345312,23.242844 17.0177582,23.5952036 17.3882391,23.8569564 C17.7567065,24.1207227 18.2036998,24.2536126 18.7312324,24.2536126 C19.2929942,24.2536126 19.7802571,24.0945474 20.1930211,23.7784306 C20.6057852,23.4623137 20.8131739,23.0233744 20.8131739,22.4616126 L20.8131739,14.6613789 L21.8944144,14.6613789 C22.1742885,14.6613789 22.4300009,14.5546643 22.6575245,14.3432485 C22.8850481,14.1338463 22.9998166,13.8882013 22.9998166,13.6063137 C23.017938,12.798907 23.017938,11.9290822 22.9998166,10.9968396 C22.9837088,10.4169564 22.7279964,10.0746643 22.2367065,9.96996315" id="Fill-16"></path>
                            <path d="M111.036548,5.27854742 C110.879497,5.2443182 110.51707,5.22619685 109.957321,5.22619685 L109.957321,1.69454742 C109.957321,1.32608 109.75396,1.03613843 109.349249,0.824722697 C108.946553,0.615320449 108.471371,0.508605843 107.92773,0.508605843 C107.38409,0.508605843 106.935083,0.597199101 106.582724,0.772372135 C106.178013,0.983787865 105.976665,1.27372944 105.976665,1.64219685 L105.976665,13.2378463 C105.976665,13.5881924 106.165933,13.866053 106.544467,14.0674013 C106.920989,14.2707631 107.374022,14.3714373 107.899542,14.3714373 C108.445196,14.3714373 108.924404,14.2606957 109.337169,14.0412261 C109.749933,13.8217564 109.957321,13.5277879 109.957321,13.1593204 C109.975443,11.5424935 109.983497,10.3303766 109.983497,9.5209564 C110.545258,9.5209564 110.905672,9.50484854 111.064737,9.47061933 C111.519784,9.38202607 111.749321,9.15248899 111.749321,8.78402157 L111.749321,5.93896989 C111.749321,5.58661034 111.509717,5.36714067 111.036548,5.27854742" id="Fill-18"></path>
                            <path d="M79.4951335,13.8171254 C80.0568953,13.8171254 80.5522121,13.7083973 80.9830975,13.4869142 C81.4139829,13.269458 81.6314391,12.965422 81.6314391,12.5788333 L81.6314391,1.7744827 C81.6314391,1.4040018 81.4240503,1.11003326 81.0112863,0.892577079 C80.5985222,0.671093933 80.1193133,0.562365843 79.5736593,0.562365843 C79.0461267,0.562365843 78.5991335,0.66304 78.2306661,0.864388315 C77.8601852,1.06573663 77.6769582,1.3435973 77.6769582,1.69394337 L77.6769582,12.7358849 C77.6769582,13.4567119 78.2810031,13.8171254 79.4951335,13.8171254" id="Fill-20"></path>
                            <path d="M101.655328,21.0382813 L100.680802,21.0382813 C100.25797,21.02016 100.038501,21.0121061 100.020379,21.0121061 C98.210258,20.9939847 97.0605591,20.9597555 96.5692692,20.9074049 C94.7953906,20.7120971 93.905431,20.2832252 93.905431,19.6147488 C93.905431,18.9664072 94.8114984,18.569751 96.6216198,18.4288072 C97.1491524,18.3764566 98.2988512,18.3583353 100.074743,18.3764566 L102.04997,18.3764566 C104.756092,18.4106858 106.109152,18.8778139 106.109152,19.7738139 C106.109152,20.6174634 104.625215,21.0382813 101.655328,21.0382813 M108.005853,16.3206903 C106.846087,15.5314049 105.50108,15.1347488 103.972847,15.1347488 L96.3840288,15.1347488 C94.7672018,15.1347488 93.3456827,15.5314049 92.1154445,16.3206903 C90.6919119,17.2348117 89.9811524,18.4549825 89.9811524,19.9852297 C89.9811524,21.4248701 90.7362085,22.5403398 92.2463209,23.3316387 C93.4604512,23.945751 94.8658625,24.2538139 96.4645681,24.2538139 L103.314438,24.2538139 C104.967507,24.2538139 106.415202,23.9356836 107.663561,23.3034499 C109.209916,22.5141645 109.983094,21.3644656 109.983094,19.8523398 C109.983094,18.394578 109.324685,17.2166903 108.005853,16.3206903" id="Fill-22"></path>
                            <path d="M18.510756,33.99424 L12.2669447,33.99424 C11.2924189,33.99424 10.8856953,33.9700782 10.3380279,33.8875254 L10.3380279,35.9714804 C10.9118706,35.9130894 11.3266481,35.8889276 12.2327155,35.8889276 L17.9147649,35.8889276 C17.485893,36.7587524 16.7831874,37.4735389 15.9133627,37.9144917 C15.7100009,38.0091254 15.7100009,38.0091254 15.639529,38.057449 C15.639529,37.93664 15.6516099,37.6507254 15.6516099,37.640658 C15.6636908,36.9621142 15.6757717,36.8533861 15.7100009,36.6157951 L13.4710076,36.6157951 C13.5314121,36.8775479 13.543493,37.0567479 13.543493,37.4372962 C13.543493,39.0219074 13.3401312,39.8675703 12.768302,40.6065187 C12.2085537,41.3213052 11.3508099,41.8448108 10.0400324,42.2616018 C10.7326706,42.9643074 10.921938,43.250222 11.3991335,44.1905187 C12.1843919,43.8220512 12.5911155,43.6066085 13.0783784,43.2743838 C13.8998796,42.7025546 14.5200324,42.0219973 14.9368234,41.2609007 C15.3536144,40.4736288 15.5569762,39.6058175 15.6274481,38.3655119 C16.1529672,38.7460602 16.5435829,39.128622 16.9623874,39.6642085 C18.4986751,38.711831 19.5215245,37.5097816 20.2846346,35.7218085 C20.4396728,35.3533411 20.4759155,35.2929366 20.653102,35.1036692 L19.5336054,33.8633636 C19.2597717,33.9821591 19.1772189,33.99424 18.510756,33.99424" id="Fill-26"></path>
                            <path d="M31.86176,38.3179937 L29.656996,38.6522319 L29.3730948,37.1501735 L31.2315398,36.8642589 C32.5181555,36.6749915 32.5181555,36.6749915 32.9208521,36.6387488 L32.5886274,34.6373465 C32.0651218,34.7923847 31.7308836,34.8527892 30.8852207,34.9836656 L29.0267757,35.2695802 L28.8958993,34.6151982 C28.7992521,34.0655173 28.7408611,33.6608072 28.7287802,33.2923398 L26.5360971,33.6245645 C26.6569061,33.9708836 26.7152971,34.2205555 26.8461735,34.9715847 L26.964969,35.5917375 L25.3098858,35.8414094 C24.4763038,35.9702724 24.0836746,36.018596 23.5581555,36.0306769 L23.8823263,38.0683218 C24.3695892,37.9374454 24.6434229,37.8891218 25.6562049,37.7340836 L27.2992072,37.4723308 L27.5730409,38.9743892 L25.2978049,39.3307757 C24.5830184,39.4495712 24.0836746,39.4978948 23.5964117,39.5220566 L23.9165555,41.5476207 C24.6675847,41.3563398 24.7259757,41.3442589 25.5474769,41.2133825 L27.9072791,40.8449151 L28.215342,42.5583892 C28.3824611,43.4644566 28.4307847,43.8107757 28.4307847,44.2154858 L30.6939398,43.8470184 C30.5509825,43.3939847 30.5268207,43.2731757 30.3375533,42.2483128 L30.0033151,40.5227578 L32.2543892,40.1764387 C33.2550903,40.0354948 33.2550903,40.0354948 33.9336342,39.960996 L33.5772476,37.9495263 C33.0779038,38.1045645 32.6832611,38.1871173 31.86176,38.3179937" id="Fill-28"></path>
                            <path d="M40.4722193,39.509573 C40.1138193,40.4156404 39.8037429,40.8324315 39.5077609,40.8324315 C39.0889564,40.8324315 38.7688126,40.1639551 38.7688126,39.3203056 C38.7688126,38.2592 39.2802373,37.1517843 40.0675092,36.4833079 C40.4843002,36.1269213 40.8648485,35.9477213 41.3641924,35.8772494 C41.233316,37.0551371 40.8890103,38.4363865 40.4722193,39.509573 M42.5098643,33.9463191 C40.7581339,33.9463191 39.2460081,34.554391 38.1969834,35.6980494 C37.3029969,36.6745888 36.8278148,37.9370427 36.8278148,39.330373 C36.8278148,41.5109753 37.9473115,43.035182 39.5440036,43.035182 C40.6272575,43.035182 41.4245969,42.3687191 42.1152216,40.8445124 C42.7595362,39.4391011 43.1642463,37.9028135 43.4259991,35.8530876 C43.854871,35.9235596 44.1186373,36.0302742 44.4267002,36.2698787 C45.1173249,36.7933843 45.4737115,37.6028045 45.4737115,38.6155865 C45.4737115,39.8901213 44.9622867,40.892836 44.0461519,41.3800989 C43.4018373,41.7143371 42.662889,41.9036045 41.5433924,41.9881708 C42.0447497,42.6546337 42.2702598,43.0835056 42.5561744,43.9412494 C44.2233384,43.6794966 45.1656485,43.2969348 45.9750688,42.5720809 C46.9757699,41.6780944 47.55968,40.2706697 47.55968,38.7223011 C47.55968,37.3772944 47.1549699,36.2215551 46.3918598,35.4121348 C45.5099542,34.4819056 44.1045429,33.9463191 42.5098643,33.9463191" id="Fill-30"></path>
                            <path d="M59.0300908,38.3179937 L56.8253267,38.6522319 L56.5394121,37.1501735 L58.3978571,36.8642589 C59.6844728,36.6749915 59.6844728,36.6749915 60.0891829,36.6387488 L59.7569582,34.6373465 C59.2334526,34.7923847 58.8992144,34.8527892 58.0535515,34.9836656 L56.1951065,35.2695802 L56.0622166,34.6151982 C55.9675829,34.0655173 55.9091919,33.6608072 55.897111,33.2923398 L53.7044279,33.6245645 C53.8232234,33.9708836 53.8836279,34.2205555 54.0145043,34.9715847 L54.1332998,35.5917375 L52.4782166,35.8414094 C51.6446346,35.9702724 51.2520054,36.018596 50.7264863,36.0306769 L51.0486436,38.0683218 C51.5359065,37.9374454 51.8117537,37.8891218 52.8225222,37.7340836 L54.467538,37.4723308 L54.7413717,38.9743892 L52.4661357,39.3307757 C51.7513492,39.4495712 51.2520054,39.4978948 50.762729,39.5220566 L51.0848863,41.5476207 C51.8359155,41.3563398 51.8943065,41.3442589 52.7158076,41.2133825 L55.0756099,40.8449151 L55.3836728,42.5583892 C55.5507919,43.4644566 55.5991155,43.8107757 55.5991155,44.2154858 L57.8622706,43.8470184 C57.7193133,43.3939847 57.6951515,43.2731757 57.505884,42.2483128 L57.1716458,40.5227578 L59.42272,40.1764387 C60.4234211,40.0354948 60.4234211,40.0354948 61.1019649,39.960996 L60.7455784,37.9495263 C60.2462346,38.1045645 59.8515919,38.1871173 59.0300908,38.3179937" id="Fill-32"></path>
                            <path d="M70.6066121,37.3664216 C70.6166796,37.1046688 70.6307739,36.3415587 70.6408413,35.7455676 C71.5952324,35.5663676 72.2496144,35.3992485 72.95232,35.1737384 C73.3228009,35.042862 73.3228009,35.042862 73.6207964,34.9723901 L72.3220998,33.2790508 C71.8690661,33.5065744 71.4281133,33.6736935 70.8200413,33.8287317 C69.4629537,34.1730373 67.1877178,34.446871 65.6031065,34.446871 C65.4239065,34.446871 65.2104773,34.446871 64.8057672,34.4227092 C65.1500728,35.1374957 65.2930301,35.5663676 65.4118256,36.234844 C67.3306751,36.1502778 67.4253088,36.1502778 68.5568863,36.0314822 L68.5568863,36.3657204 C68.5568863,36.7825115 68.5568863,37.0080216 68.5327245,37.3664216 L66.0319784,37.3664216 C64.9245627,37.3664216 64.6386481,37.3543407 64.1372908,37.2818553 L64.1372908,39.2369474 C64.6386481,39.1886238 64.9124818,39.1765429 65.9957357,39.1765429 L68.3434571,39.1765429 C68.234729,39.8792485 68.0817043,40.2960396 67.759547,40.7249115 C67.2481222,41.439698 66.5091739,41.9048126 65.06752,42.4283182 C65.7823065,43.0243092 66.0903694,43.4169384 66.5434031,44.2142778 C67.1152324,43.9646058 67.3548369,43.8337294 67.6991425,43.6082193 C68.5327245,43.0827002 69.2354301,42.3920755 69.6763829,41.7014508 C70.1052548,40.9987452 70.3307649,40.2718778 70.4757357,39.1765429 L72.5959335,39.1765429 C73.6671065,39.1765429 73.9550346,39.1886238 74.4422975,39.2369474 L74.4422975,37.2818553 C73.9288593,37.3422598 73.4778391,37.3664216 72.5596908,37.3664216 L70.6066121,37.3664216 Z" id="Fill-34"></path>
                            <path d="M81.9078903,36.3409546 C80.9071892,35.4369007 80.1340117,34.8872198 78.6319533,34.0073276 L77.2627847,35.6865726 C78.4527533,36.3288737 79.4675488,37.1141321 80.5044926,38.1993996 L81.9078903,36.3409546 Z" id="Fill-36"></path>
                            <path d="M85.6241762,35.2693789 C85.2798706,36.1875272 84.9577133,36.8419092 84.4583694,37.6030058 C83.5402211,39.0345924 82.4690481,39.9265654 80.9669897,40.5467182 C79.847493,41.0118328 78.59712,41.3078148 77.3809762,41.404462 L78.001129,43.6917789 C78.3232863,43.5951317 78.3937582,43.5830508 78.8608863,43.4763362 C81.0737043,42.9649115 82.2072953,42.5239587 83.4918975,41.6883631 C85.1610751,40.6171901 86.2926526,39.2117789 87.3759065,36.8640575 C86.4839335,36.2096755 86.2080863,35.9720845 85.6241762,35.2693789" id="Fill-38"></path>
                            <path d="M97.5280899,35.3410589 C97.7455461,34.666542 97.5361438,33.4503982 96.8596135,33.2309285 C96.1850966,33.0114589 95.3011775,33.8712162 95.0796944,34.545733 C94.8602247,35.2222634 95.2307056,35.9491308 95.9052225,36.1686004 C96.5817528,36.3880701 97.3086202,36.0175892 97.5280899,35.3410589" id="Fill-40"></path>
                            <path d="M99.0893447,37.2011146 C99.7638616,37.4205843 100.490729,37.0501034 100.710199,36.373573 C100.929668,35.6990562 100.718253,34.4829124 100.043736,34.2634427 C99.3672054,34.043973 98.4812728,34.9037303 98.2618031,35.5802607 C98.0423335,36.2547775 98.4128144,36.9816449 99.0893447,37.2011146" id="Fill-42"></path>
                            <path d="M92.866071,37.6160935 C93.5426013,37.8355631 94.2674553,37.4650822 94.4869249,36.7885519 C94.7063946,36.1140351 94.4969924,34.8978912 93.820462,34.6784216 C93.1439317,34.4589519 92.2579991,35.3187092 92.0405429,35.9932261 C91.8190598,36.6697564 92.1895407,37.3966238 92.866071,37.6160935" id="Fill-44"></path>
                            <path d="M101.653314,37.2218535 C100.976784,37.0023838 100.092865,37.8621411 99.8713816,38.5386715 C99.6519119,39.2131883 100.022393,39.9400557 100.69691,40.1595254 C101.37344,40.3789951 102.100307,40.0085142 102.319777,39.3319838 C102.539247,38.6554535 102.327831,37.4413231 101.653314,37.2218535" id="Fill-46"></path>
                            <path d="M97.1918382,37.8323416 C95.4360809,37.2605124 92.9071461,38.5310202 92.1480629,40.8646472 C91.3909933,43.1982742 93.7185798,42.5418787 95.4763506,43.1137079 C97.2341213,43.6835236 98.7361798,45.5822382 99.4932494,43.2486112 C100.250319,40.9149843 98.949609,38.4021573 97.1918382,37.8323416" id="Fill-48"></path>
                        </g>
                    </g>
                    <rect id="Rectangle-4" x="0" y="0" width="140" height="56"></rect>
                </g>
            </g>
        </g>
    </g>
</svg>